<svg id="Capa_1" data-name="Capa 1" xmlns="http://www.w3.org/2000/svg" viewBox="0 0 970.66 970.65"><path d="M1125.52,527.83c-.29,4-.65,8-.87,12.08a475.64,475.64,0,0,1-22.77,121.86A485.43,485.43,0,0,1,725.6,989.68a478.06,478.06,0,0,1-66.67,7.12A489.72,489.72,0,0,1,585,994.08,484.43,484.43,0,0,1,155.33,533.36a491.64,491.64,0,0,1,2.12-72.3A485.34,485.34,0,0,1,545.07,35.82a493.14,493.14,0,0,1,149.06-6.35,483.36,483.36,0,0,1,279.63,129.9q101.61,96.78,136.82,232.73a469.46,469.46,0,0,1,14.56,102.26,9.9,9.9,0,0,0,.38,1.81ZM181,511.82c0,251.6,202.14,455.57,452.18,459.2,257.29,3.72,464-202.72,466.24-454.73C1101.66,260.93,896.43,55,644.68,52.62,388.22,50.25,180.83,257.56,181,511.82Z" transform="translate(-154.86 -26.51)"/><path d="M270.5,559c4.64,0,9.28-.09,13.91,0a4.45,4.45,0,0,0,4-1.93c14.18-17.18,31.85-29,53.76-33.7a117.22,117.22,0,0,1,19-2.15c7.42-.36,14.87-.06,22.31-.12a5.42,5.42,0,0,0,2.89-.77c29.47-20.36,61.91-34.33,96-44.67A506.46,506.46,0,0,1,567,458.21a595.82,595.82,0,0,1,91.63-4.14c50.38,1.53,99.86,8.77,147.93,24.35,28.14,9.11,55,20.94,80,37,.07.05.15.07.21.12,5.5,5.21,12.1,6.1,19.41,5.78,10-.44,20-.44,29.85,1.52,24.7,4.89,44,18.11,59,38a116.4,116.4,0,0,1,6.56,10,3.2,3.2,0,0,0,3.22,1.83c6.07-.08,12.15,0,18.23,0,12.65,0,22.12,9,23,21.67.56,8.5-1.38,16.54-4.64,24.26-2.36,5.57-5.15,11-7.94,16.35a3.67,3.67,0,0,0,0,4.1c5.24,9.19,9.77,18.68,11.82,29.17,1.19,6.11,1.45,12.22-.65,18.22a21.8,21.8,0,0,1-21,15c-9.27,0-18.55.05-27.82,0a4.17,4.17,0,0,0-3.6,1.75c-14.91,18.05-33.54,30.11-56.72,34.49a102.83,102.83,0,0,1-15.48,1.48c-7.51.24-15,0-22.54.11a6.6,6.6,0,0,0-3.55,1C869,757.3,842,769.89,813.65,779.65c-32.9,11.32-66.73,18.5-101.24,22.7a595.42,595.42,0,0,1-88,4.11c-53.14-1.44-105.28-9.09-155.81-26.17-29.1-9.84-56.77-22.64-82.13-40.17a6.27,6.27,0,0,0-3.33-.91c-8.88-.12-17.76.13-26.62-.25-22.31-1-41.44-9.7-57.86-24.6a100.34,100.34,0,0,1-19.7-24.61,3.38,3.38,0,0,0-3.39-2c-6.72,0-13.44.16-20.14-.18-11.17-.57-19.63-9-20.84-20.16-1-9.61,1.44-18.56,5.14-27.21,2.22-5.2,4.93-10.2,7.55-15.22a2.9,2.9,0,0,0,0-3.24c-5.64-9.89-10.55-20.09-12.37-31.47-1.2-7.5-.87-14.86,3.52-21.46s10.53-9.61,18.21-9.82C261.23,558.91,265.87,559,270.5,559Zm375,215.53c15.38.12,36.1-1.11,56.77-3.39a488.66,488.66,0,0,0,87.46-17.51c30.87-9.31,60.43-21.56,87.3-39.68,15.81-10.66,30.07-23,41-38.84,8.66-12.52,14.31-26.17,15.06-41.56.83-16.93-4.44-32.1-13.6-46.07C909.39,572,896,559.79,881,549.2c-25.69-18.14-54.11-30.64-83.93-40.11C742.71,491.85,686.9,485,630,486a554.36,554.36,0,0,0-56.88,3.87c-33.71,4-66.75,11.08-98.86,22.19-28,9.69-54.63,22-78.54,39.75-15.42,11.43-29,24.62-38.49,41.54-8.68,15.49-12.26,32-8.95,49.61,2.77,14.82,9.77,27.61,19.19,39.17,13.36,16.39,29.93,28.93,48,39.59,29.62,17.44,61.57,29,94.78,37.36C552.9,769.76,596.21,774.6,645.52,774.55ZM932.75,554.84c39.29,50.42,39.26,100.47,0,150.81,1.54-.38,2.92-.66,4.27-1.06,15.88-4.76,28.12-14.44,37.39-28,3.35-4.9,7.72-7.37,13.69-7.26,7,.13,14.07,0,21.1,0h5.91a25,25,0,0,0-1.09-2.72c-3.5-6.45-6.83-13-10.6-19.28-4.23-7-4.29-13.74.06-20.7,3-4.8,5.71-9.79,8.44-14.75,1.21-2.21,2.13-4.58,3.35-7.24-6.68,0-12.89-.18-19.09.05-7.62.28-12.45-3.25-15.56-10a72.45,72.45,0,0,0-22.31-28A64.22,64.22,0,0,0,932.75,554.84ZM347.54,705.57c-39.38-50.61-39.16-100.68.06-150.75-.42.09-.89.16-1.34.27-1.46.39-2.94.74-4.38,1.21-15.42,5-27.25,14.72-36.29,28a14.58,14.58,0,0,1-13,6.79c-8.23-.07-16.46,0-24.7,0-.83,0-1.66.07-3.39.15,4.37,7.74,8.3,15,12.54,22.13,4,6.69,4.14,13.16.12,19.86C274,638.56,271,644,268,649.46c-1.06,1.93-1.84,4-2.92,6.39h2.74c6.16,0,12.31,0,18.47,0a13.62,13.62,0,0,1,3.54.43c4.74,1.31,7.65,4.59,9.67,8.94,6.47,13.9,16,25.16,29.29,33A60.91,60.91,0,0,0,347.54,705.57Z" transform="translate(-154.86 -26.51)"/><path d="M1054.77,552.56c-3.82-4.41-7.52-8.9-11.47-13.15-3.65-3.91-7.62-7.53-11.33-11.39a5,5,0,0,1-1.3-3.07c-.3-13.73,0-27.5-.82-41.19a373.5,373.5,0,0,0-19.23-96.52,392.1,392.1,0,0,0-248.45-246.7,383,383,0,0,0-80.41-17.25,393.17,393.17,0,0,0-85.39.21,380.44,380.44,0,0,0-127.85,37.29Q352.95,218.12,293,332.45a381.18,381.18,0,0,0-38.64,116.8,409,409,0,0,0-4.83,76,3.86,3.86,0,0,1-.83,2.53c-7.76,8.14-15.59,16.21-23.27,24.16-2.71-4.92-2.44-62,1.12-92.1a401.11,401.11,0,0,1,21.7-90.38,417.26,417.26,0,0,1,100-155.22c136.67-134,344.52-156.56,504.6-60.82C1018.17,252.22,1069.36,425.45,1054.77,552.56Z" transform="translate(-154.86 -26.51)"/><path d="M537.59,232.81c-3.94.34-7.61.36-11.16,1-28.78,5.34-51.89,19.69-67.43,44.67-18.63,29.94-11.76,61.77,13.95,84.21a77.6,77.6,0,0,0,20.85,13c5.9,2.49,9,6.66,9.06,13.28.17,11.33.72,22.67,1.1,34a6,6,0,0,1-.15,1.05L477,428.67c-.36-6.86-.74-13.47-1.06-20.07-.2-4.23-.24-8.47-.57-12.69a3.65,3.65,0,0,0-1.76-2.36,117.19,117.19,0,0,1-33.05-27c-10-11.94-17-25.31-19-40.92-1.84-14.07.69-27.55,6.12-40.51,9.46-22.57,25.23-40,45-53.88,16.56-11.63,34.68-19.75,54.83-22.63,6.36-.91,12.88-.85,19.33-.87a4.4,4.4,0,0,0,4.34-2.27c16.5-24.88,38.52-42.54,67.64-50.3,26-6.91,50-1.34,72.33,12.79a127,127,0,0,1,38.34,38c.66,1,1.14,1.93,2.73,1.78,15.38-1.4,30.07,1.83,44.29,7.26,28.45,10.88,52,28.2,68.65,54.07,9.85,15.29,14.89,32.08,14.06,50.4-.65,14.6-5.67,27.75-13.82,39.75a105.5,105.5,0,0,1-37.73,33.65,4.88,4.88,0,0,0-2.91,4.79c-.35,9.41-.82,18.83-1.26,28.24,0,.79-.16,1.58-.28,2.7l-26.42-4.55c0-4.71-.09-9.33,0-13.93.17-7.51.47-15,.72-22.51.19-5.56,3.14-9.25,8-11.5a90.13,90.13,0,0,0,23.72-15.61c11.26-10.42,19.41-22.67,21.86-38.12a58.4,58.4,0,0,0-6.28-36.7c-15.63-30.11-40.88-46.94-74.06-52.35a64.28,64.28,0,0,0-7.65-.39c1.41,6.7,2.82,13,4,19.32a31.09,31.09,0,0,1,.55,6.67c-.16,7.26-6.75,12.23-14.6,11.16a14.24,14.24,0,0,1-12.43-13.21c-.88-18.25-7.66-34.16-19.21-48.06-12.93-15.58-29.17-25.93-49.3-29.51-18.27-3.25-35.34.54-51,10.18-21.74,13.41-35.65,32.55-40.58,57.84a99.73,99.73,0,0,0-1.16,10.23c-.89,10.23-13.41,16.27-21.92,10.49-3.59-2.44-5.59-6-4.94-10.25,1.14-7.48,2.78-14.88,4.22-22.31C537,234.85,537.22,234.18,537.59,232.81Z" transform="translate(-154.86 -26.51)"/><path d="M310.66,767c7.11,3.5,13.58,7,20.27,9.93,11.6,5.14,23.35,9.93,35,15a18,18,0,0,1,5.18,3.26q75.57,71.4,176.49,96.35a378.88,378.88,0,0,0,77,10.73q101.19,3.78,191.75-41.57a386.22,386.22,0,0,0,93.59-66.18,9.84,9.84,0,0,1,3.14-2.1,480.62,480.62,0,0,0,55.42-25,10.11,10.11,0,0,1,1-.38c-60.7,80.38-170.33,155.27-310.93,161.24A415.68,415.68,0,0,1,310.66,767Z" transform="translate(-154.86 -26.51)"/><path d="M719.53,417.17l-23.94-1.75c1.08-4.34,2.16-8.56,3.17-12.79a236.63,236.63,0,0,0,6.49-49.07c.17-6.82,5-11.55,11.78-11.48a11.17,11.17,0,0,1,11.19,11.84c-.42,8.76-.78,17.58-2,26.25C724.4,392.47,721.82,404.65,719.53,417.17Z" transform="translate(-154.86 -26.51)"/><path d="M560.66,417.19c-1.64-7.59-3.37-15-4.8-22.38a218.77,218.77,0,0,1-4.21-41.15c0-6.16,4.44-11.17,10.18-11.55,6.7-.44,11.92,3.55,12.6,10.06.63,6,.7,12.1,1.21,18.14,1.22,14.44,4.22,28.56,8,42.54.22.83.42,1.67.65,2.6Z" transform="translate(-154.86 -26.51)"/><path d="M722.42,568.69c1.22-2,2.38-4,3.61-6.07-9.6-1.81-15.87-7.14-18.44-16.29a22.34,22.34,0,0,1-.65-9c1.4-9.7,9.29-14.48,18.65-11.53,11.59,3.65,17.51,12.15,19.94,23.6,1.59,7.5-.68,14.05-4.94,20.06-1.79,2.52-3.94,4.79-6,7.26a31.78,31.78,0,0,1,9,14.07c4.41,14.88-2,29.35-16.38,36.76-12.36,6.38-25.6,8.2-39.29,7.39-3.57-.21-7.1-1-10.67-1.42A13.44,13.44,0,0,0,665.4,638c-1.91,2.1-.27,5.71,2.84,6.36a20,20,0,0,0,3.8.09c14,.14,28,0,41.94.55a66.53,66.53,0,0,1,17.79,3.29c11.86,3.91,16.75,12.84,15,25.22-2.8,20-14,33.47-32.41,40.8a86.44,86.44,0,0,1-47.78,4.84c-9.85-1.76-18.21-6.36-23.85-15-6.52-10-7.23-24.91,7.7-33.27.62-.34,1.21-.73,2-1.22-9.12-5.35-12.78-13.29-11.52-23.45s7.3-16.67,16.18-20.79c-2.4-2.5-5-4.78-7.07-7.45-14.07-18-7-43.41,14.44-51.77,9.23-3.61,18.86-4.62,28.71-4.05C703.22,562.75,713,564.24,722.42,568.69Zm-46.29,30.6a54.53,54.53,0,0,0,1.38,7.59c2.19,7,7.19,10.8,14.38,11.49s13.4-1.11,17.32-7.7a19.62,19.62,0,0,0-15.6-29.94c-8.61-.57-15.09,4.29-16.81,12.68C676.45,595.12,676.39,596.89,676.13,599.29ZM692.3,672.8v.4c-5.28,0-10.55,0-15.82,0a3.89,3.89,0,0,0-2.21.63,15.27,15.27,0,0,0-5.87,8.52c-1.94,8.06,1.45,13,9.69,13.78a73.26,73.26,0,0,0,10,.42c6.8-.23,13.57-.84,19.76-4.09,3.6-1.89,6.33-4.54,7.53-8.57a8.38,8.38,0,0,0-8.26-11.11C702.2,672.78,697.25,672.8,692.3,672.8Z" transform="translate(-154.86 -26.51)"/><path d="M565.2,598.81a81.61,81.61,0,0,1-18,50.44c-11.2,14-26,21.78-43.78,23.38-27.7,2.49-52.19-5.69-73.5-23.43a63.29,63.29,0,0,1-16.75-21.34c-7.24-15.09-5.91-29.92,2-44.32,6.92-12.62,16.85-22.63,28.31-31.15,14.77-11,30.88-19.22,49.08-22.84,10.62-2.11,21.28-2.59,31.81.42,14.74,4.21,24.82,14,31.69,27.32C562.3,569.45,565.17,582.44,565.2,598.81Zm-42.33-10.18c-.11-2.21-.15-5.89-.47-9.54-.7-7.74-1.94-15.38-5.72-22.33-3.32-6.11-8.38-9.72-15.42-10.3-9.81-.81-18.4,2.6-25.56,8.85-19.88,17.38-27.69,39.41-23.05,65.36,2.15,12,8.14,22.12,18.7,29,11.64,7.56,26,6.91,35.29-1.63,4.64-4.28,7.4-9.75,9.56-15.56C521.28,618.79,522.48,604.5,522.87,588.63Z" transform="translate(-154.86 -26.51)"/><path d="M858.39,650.76h11.69c-.73,3.27-1.37,6.43-2.16,9.54-.61,2.39-.74,5.56-2.33,6.85s-4.7.69-7.15.81c-8.77.46-17.55.84-26.32,1.33-1.72.09-2.54-.29-2.84-2.19-.47-2.89-1.35-5.72-2.07-8.61-2.86,2.4-5.41,4.79-8.22,6.85-7.57,5.57-16.44,7.29-25.53,7.77a53,53,0,0,1-14-.71c-11.07-2.4-18.29-11.24-20-22.76-3.32-22.1,12.68-34.29,29.56-35.29a116.89,116.89,0,0,1,20.29,1A36.31,36.31,0,0,1,827.5,623c0-2.48.12-4.49,0-6.49-.36-5.5-.73-11-1.28-16.47-1-9.52-5.68-14.86-15.12-16.55-3.87-.69-7.91-.46-11.87-.51a9.78,9.78,0,0,0-2.84.87c2.34,4.06,3.51,8.17,2.72,12.58-1.31,7.36-7.49,12.38-15.91,13.11-13.44,1.16-24.65-11.9-21.26-24.9,1.54-5.9,5.77-9.85,10.6-13.14,5.63-3.82,12.06-5.36,18.73-6,15.77-1.6,30.93.29,45,8.07,9.23,5.09,16.93,11.77,21.3,21.63,2.89,6.5,2.86,13.53,3.2,20.46A170.06,170.06,0,0,1,858.39,650.76Zm-48.83-21c-2,.26-4.13.4-6.16.81-4.16.85-7.39,3.11-8.08,7.46a38.62,38.62,0,0,0-.19,10.19,6.55,6.55,0,0,0,5.75,6,28.63,28.63,0,0,0,7.83.4c5.91-.69,10.7-4,15.22-7.59,2.06-1.67,3.6-6.88,2.78-9.34a2.27,2.27,0,0,0-.71-.92C821.21,632.83,816.07,629.75,809.56,629.78Z" transform="translate(-154.86 -26.51)"/><path d="M629,672.94H573.71c-.43-6.42-.83-12.52-1.26-18.94h11.79a873.5,873.5,0,0,1,3.17-108.42H576.3c.83-6.08,1.57-11.92,2.52-17.72.09-.57,1.48-1.31,2.28-1.33,9.19-.28,18.37-.45,27.56-.61,3.5-.06,7,0,10.78,0-1.86,42.73-2.89,85.32-2.12,128.19H629Z" transform="translate(-154.86 -26.51)"/><path d="M563.85,731.88l-2.62-.69c.06-.86.11-1.69.19-2.94,5.36.82,10.57,1.44,15.69,2.47,2.87.57,4.23,2.75,4.28,5.6a5.73,5.73,0,0,1-3.9,5.95,17,17,0,0,1-4.43.86,40.7,40.7,0,0,1-4.53-.19c-.2,1.71-.4,3.41-.62,5.26l3.45.55c-.05.88-.1,1.69-.17,2.85l-12.33-1.4c0-1,.09-1.8.14-2.69h2.93C562.57,742.3,563.21,737.13,563.85,731.88Zm5,7.83c2,.53,4,.86,4.94-.84.72-1.25,1-3.45.39-4.58s-2.7-1.54-4.5-2.45C569.38,735,569.13,737.31,568.88,739.71Z" transform="translate(-154.86 -26.51)"/><path d="M713.33,742.93c.36-4.56-.76-5.91-4.15-4.85,0,.72.3,1.69-.06,2.21a4.2,4.2,0,0,1-2.4,1.87,3.24,3.24,0,0,1-2.71-1.3,4,4,0,0,1,.32-3.28c1.44-2.36,6.34-3.57,9.63-2.66,3.12.86,4.37,2.54,4.73,6.35a39.71,39.71,0,0,0,.58,4.51c.13.58.85,1,1.22,1.56.49.76.89,1.57,1.66,2.95-2.9-.35-5.13,1.58-6.68,0-2.64.62-4.86,1.44-7.11,1.58a4.53,4.53,0,0,1-.67-9,13.71,13.71,0,0,1,2.87-.15C711.48,742.72,712.41,742.85,713.33,742.93Zm-1.91,1.27c-.91,1.22-1.82,1.92-1.92,2.73-.07.52,1.26,1.8,1.59,1.68a13.43,13.43,0,0,0,2.93-1.92Z" transform="translate(-154.86 -26.51)"/><path d="M588.79,739.65c-.09.7,0,1.41-.27,1.75-.7.77-1.57,1.86-2.42,1.9a3.73,3.73,0,0,1-2.86-1.51,3.48,3.48,0,0,1,.39-3c1.46-2.2,6.36-2.82,9.82-1.47,3,1.16,4.29,3.25,4.07,6.53-.1,1.51-.25,3-.27,4.54,0,1-.73,2.39,1.15,2.85.3.07.26,1.51.45,2.74-2.51-.57-5,.86-6.31-1.15-2.57.18-4.82.63-7,.42a4.68,4.68,0,0,1-3.93-5.19,4.28,4.28,0,0,1,4.73-3.79,47.16,47.16,0,0,1,5.64.84C593.22,741.25,592.45,739.69,588.79,739.65Zm.36,11.81,2.79-2.66a12.26,12.26,0,0,0-2.82-1.72,1.38,1.38,0,0,0-1.83,1.74C587.48,749.61,588.27,750.26,589.15,751.46Z" transform="translate(-154.86 -26.51)"/><path d="M647.6,750.62c-1.5,3.88-5.13,5.77-9.5,5a8.13,8.13,0,0,1-7-8,8.38,8.38,0,0,1,6.37-8.73c5.26-1.23,9.79,1.6,10.87,6.7.35,1.66.21,2.6-1.83,2.54-3.18-.1-6.37,0-9.69,0-.1,2.22.66,3.59,2.38,4.24s3.85.48,5-1.19S646.32,750,647.6,750.62Zm-4.73-5.5c-.4-1.88-.88-3.51-3-3.44s-2.82,1.42-2.94,3.44Z" transform="translate(-154.86 -26.51)"/><path d="M664.71,747.82c.27,2.3,1.08,3.67,3,4.08,2.3.5,3.64-.19,5.83-2.92l2.17.68a7.3,7.3,0,0,1-6.43,5.35c-3.57.56-6.68-.41-8.83-3.48a9.17,9.17,0,0,1,0-9.75,8.82,8.82,0,0,1,9-3.57,8.21,8.21,0,0,1,6.76,6.6c.39,1.67.12,2.54-1.87,2.56C671.21,747.4,668.05,747.65,664.71,747.82Zm5.91-3.24c-.25-2-1-3.61-3-3.55s-3,1.5-2.89,3.55Z" transform="translate(-154.86 -26.51)"/><path d="M609.75,741.05c-.44-.1-.69-.25-.89-.19-.91.28-1.79.61-2.69.92.67.78,1.19,1.82,2,2.3,1.29.74,2.84,1,4.21,1.64a4.13,4.13,0,0,1,2.65,4.39c-.16,2.06-1.2,3.78-3.14,4a35.58,35.58,0,0,1-8.44-.13c-.93-.11-2-1.33-2.48-2.31a2.31,2.31,0,0,1,1.56-3.41,2.45,2.45,0,0,1,3.26,1.63,7,7,0,0,1,.27,1.67c.52.11,1,.38,1.43.26a23.24,23.24,0,0,0,2.6-1.17c-.64-.78-1.13-1.83-2-2.3-1.37-.77-3-1-4.42-1.74a4.38,4.38,0,0,1-.69-7.08c2.29-2,9-1.82,11,.49a3.55,3.55,0,0,1,.63,3,2.8,2.8,0,0,1-2.41,1.31c-.86-.16-1.6-1.21-2.3-2C609.71,742.1,609.81,741.57,609.75,741.05Z" transform="translate(-154.86 -26.51)"/><path d="M692.48,738.52c.16.77.67,1.71.4,2.29-.52,1.09-1.36,2.57-2.29,2.76s-2.22-.91-3.23-1.62c-.35-.25-.33-1-.59-1.89-3.68,3.28-1.44,7.09-1.72,10.66l3.86-.17c.11.9.21,1.68.36,2.83l-10.86.81c-.17-1.33-1.17-2.72,1-3.25.21-.05.31-1,.29-1.48-.11-2.4-.25-4.79-.45-7.18a3.05,3.05,0,0,0-.6-1.4,8.85,8.85,0,0,1-1.51-2.53c2.53-.13,5-2.13,6.84.71,3.47-2.89,5.62-3,8.48-.5Z" transform="translate(-154.86 -26.51)"/><path d="M624.15,735.52v3.19l4.71.29v2.73H623.8c0,3.07,0,6,.05,8.88a1.77,1.77,0,0,0,1,1.36,3.89,3.89,0,0,0,1.9-.63c.77-.37,1.49-.84,2.53-1.43-.11,3.75-2.07,5.61-5.13,5.52-3.65-.1-5.72-1.92-5.64-5.07a52.5,52.5,0,0,0-.1-8.15c-.45-.74-1.27-1.51-1.23-2.23,0-.56,1.14-1.06,1.77-1.58.85-.69,1.68-1.4,2.55-2.07.67-.5,1.38-1,2.07-1.42Z" transform="translate(-154.86 -26.51)"/><path d="M648.63,733.31h7.28c0,2.4,0,4.84,0,7.28.06,2.94.18,5.89.31,8.83,0,1.17-.45,2.6,1.44,3,.26.06.54,1.18.39,1.69a1.78,1.78,0,0,1-1.33,1c-2.38.1-4.76,0-7.28,0-.53-1.58-.6-2.89,1.34-3.12,0-4.79,0-9.41,0-14,0-.61-.85-1.16-1.15-1.81A29.4,29.4,0,0,1,648.63,733.31Z" transform="translate(-154.86 -26.51)"/><path d="M692.5,738.56a2.65,2.65,0,0,1,3-2,34.38,34.38,0,0,0,4.26-.23c.43,4.34.86,8.58,1.28,12.82l.51-.29,2.06,3.36-9.16.83c-.14-1.34-1.12-2.62,1-3.17.22-.05.31-1,.28-1.5a44.13,44.13,0,0,0-.67-7.11c-.23-1-1.61-1.8-2.48-2.69C692.48,738.52,692.5,738.56,692.5,738.56Z" transform="translate(-154.86 -26.51)"/><path d="M693,734.8a42.1,42.1,0,0,1,4.35-4.87c.55-.47,2,.14,3.07.26-.28,1-.24,2.59-.89,3a41.2,41.2,0,0,1-6,2.41Z" transform="translate(-154.86 -26.51)"/></svg>