<svg id="Layer_1" data-name="Layer 1" xmlns="http://www.w3.org/2000/svg" viewBox="0 0 649.39 649.84"><path d="M670.66,708.68a18.84,18.84,0,0,0-2.33-.38A321.3,321.3,0,0,1,543.4,677,325.74,325.74,0,0,1,375,486.05,320.79,320.79,0,0,1,361.55,428a327.25,327.25,0,0,1-2.93-39.19c-.77-53,10.4-103.35,34.35-150.64Q441.26,142.85,536.5,93.94a316.16,316.16,0,0,1,86.58-29.5,321.86,321.86,0,0,1,42.1-5.07,325.91,325.91,0,0,1,40.75.23,322.48,322.48,0,0,1,118,31.07,325.8,325.8,0,0,1,167,187.56,319,319,0,0,1,14.34,60,220.18,220.18,0,0,1,2.41,26,9.83,9.83,0,0,0,.38,1.82v34.55c-.14,1-.33,2-.4,3.05-.34,4.54-.54,9.09-1,13.62a299,299,0,0,1-8.46,47.61q-22.93,87.8-87.76,151.34a323.42,323.42,0,0,1-211.75,92,14.62,14.62,0,0,0-2.06.38ZM993.24,383.81C993.67,214.17,855.83,73.89,683.38,73.9c-171,0-309.12,138.53-309.8,308.62C372.9,553.13,510.64,693.3,682.8,693.61,856.29,693.93,993.66,552.91,993.24,383.81Z" transform="translate(-358.58 -58.84)"/><path d="M683.36,658.38c-151.48.23-275.76-123.49-274.46-276.95C410.17,230,534.3,107.67,686.55,109.31,836.18,110.91,959.23,233.19,958,386.18,956.77,537.83,833.12,658.71,683.36,658.38Zm0-10C828.05,648.64,946.85,531.72,948,386c1.15-147.23-117.42-265.11-261.53-266.7-145.64-1.6-266.13,115.21-267.53,261.91C417.51,529.8,537.82,648.57,683.33,648.37Z" transform="translate(-358.58 -58.84)"/><path d="M786.25,263.86c4,.65,7.65,1,11.19,1.88a49.84,49.84,0,0,1,37.39,41.12,55.73,55.73,0,0,1,.53,7.64q.06,27.35,0,54.69v3.18h3q21.95,0,43.9,0a12,12,0,0,1,3.53.45,7.43,7.43,0,0,1-1.76,14.46c-.71.05-1.43,0-2.15,0-4.88,0-9.76,0-14.63,0l-320.71.07q-30.82,0-61.65-.08a13.25,13.25,0,0,1-3.78-.39,7.37,7.37,0,0,1-5.07-7.81,7.52,7.52,0,0,1,6.75-6.72,24,24,0,0,1,2.4,0h46.3v-2.79c0-18.31.14-36.62,0-54.93A50.27,50.27,0,0,1,572.59,265c2.57-.47,5.2-.64,8.1-1,0-1,0-1.9,0-2.83,0-5.76-.15-11.53.21-17.27,1.31-21.36,17.59-40.17,38.55-44.82a54.69,54.69,0,0,1,11.89-1.3H662c-1.86-7-1.46-13.54,2.39-19.56s9.45-9.37,16.61-10.45c.4-1.18.79-2.38,1.2-3.57,2.22-6.33,5.17-12.23,10.1-16.93,3.7-3.53,8-5.56,13.25-4.8a6.55,6.55,0,0,1,5.75,6.13,6.48,6.48,0,0,1-4.62,6.55,4.51,4.51,0,0,1-1.87.26c-1.86-.3-3,.71-4.15,1.91a30.81,30.81,0,0,0-5.95,10.59c-.25.66-.42,1.36-.67,2.21,10.19,6.45,13.91,15.57,10.93,27.66h2.65q14.14,0,28.3,0A48.52,48.52,0,0,1,766.27,208c13,10.07,19.69,23.42,20,39.91.08,4.55,0,9.11,0,13.67Zm34.06,51.31c0-1.35.05-2.39,0-3.42-1.07-17.38-15.91-31.89-33.29-32.44-4.79-.15-9.6,0-14.39,0H594.39c-4.48,0-9-.14-13.44,0-12.59.43-22.34,6-29.16,16.58a33.94,33.94,0,0,0-5.26,19.25c4.85,1.31,8.77,4.24,12.91,6.8,5.28,3.26,10.75,3.17,16.11,0,1.72-1,3.28-2.29,5-3.28,10.6-6.11,21.25-6.1,31.85,0,1.52.88,2.92,2,4.4,2.91,5.78,3.66,11.58,3.64,17.35,0,1.48-.95,2.88-2,4.4-2.91q15.91-9.12,31.86,0c1.45.84,2.78,1.87,4.19,2.78q8.75,5.65,17.55.07c1.21-.78,2.36-1.66,3.58-2.4q16.77-10.17,33.49.08c1.29.79,2.49,1.74,3.78,2.53a15.08,15.08,0,0,0,16.75,0c1.44-.87,2.76-1.93,4.19-2.79q16.29-9.76,32.67-.15c1.52.88,2.9,2,4.4,2.91,5.66,3.44,11.37,3.46,16.93-.14C811.85,319.1,815.62,316.4,820.31,315.17ZM546.6,372c2.81.53,271.93.41,273.64-.1V331.53c-1.39.92-2.51,1.63-3.59,2.4-9.89,7.07-24.55,7.11-34.49,0-1.17-.84-2.35-1.67-3.59-2.4a15,15,0,0,0-16.33,0c-1.58.94-3,2.11-4.6,3q-16.21,9.54-32.46,0c-1.65-1-3.15-2.2-4.81-3.15a14.93,14.93,0,0,0-15.92,0c-1.44.84-2.77,1.89-4.2,2.77-11.13,6.87-22.3,6.85-33.47.11-1.23-.74-2.38-1.63-3.59-2.4q-8.78-5.59-17.54,0c-1.41.91-2.75,1.95-4.2,2.79q-16,9.25-32.05-.06c-1.52-.88-2.93-1.94-4.39-2.92a15.36,15.36,0,0,0-11.69-2.26,16.42,16.42,0,0,0-6.66,3.13,33.05,33.05,0,0,1-9.45,5.11c-9.3,2.75-18.16,1.93-26.42-3.44-1.31-.86-2.6-1.73-4.19-2.79ZM770.24,239.52a10.32,10.32,0,0,0-4.4,2.46c-1.74,1.52-3.42,3.12-5.17,4.64a23.85,23.85,0,0,1-9.33,5.26c-8.77,2.38-17,1.28-24.21-4.51-2.13-1.69-4-3.64-6.12-5.39-4.74-4-10.5-4-15.24.08-1.52,1.3-3,2.66-4.44,4a26.4,26.4,0,0,1-35.77,0c-1.52-1.42-3-2.84-4.63-4.18-4.66-3.9-10.39-3.87-15,.09-1.71,1.44-3.31,3-5,4.48a24.31,24.31,0,0,1-9.51,5.42c-9.36,2.53-17.89,1-25.34-5.43-1.69-1.46-3.27-3.06-5-4.47-1.2-1-2.6-1.73-4.29-2.83-1.74,8.56-.64,16.67-1,24.67a4.76,4.76,0,0,0,1,.29l172.46,0a11.4,11.4,0,0,0,1.42-.15.33.33,0,0,0,.21-.11,4.17,4.17,0,0,0,.36-.47C770.89,255.76,771.88,247.77,770.24,239.52Zm-166.75-13.6c4.68,2,8.06,5.19,11.44,8.36.52.49,1.1.93,1.64,1.4a11.19,11.19,0,0,0,13.95-.12c1.5-1.32,3-2.67,4.46-4a26.57,26.57,0,0,1,8.34-5.53c9.47-3.53,18.37-2.56,26.45,3.73,2.2,1.71,4.23,3.65,6.29,5.55a11.27,11.27,0,0,0,14.89-.1c1.57-1.47,3.21-2.88,4.8-4.34a26.28,26.28,0,0,1,35.19-.16c1.66,1.5,3.35,3,5,4.5a11.35,11.35,0,0,0,15.09,0c3.74-3.46,7.33-7.14,12.15-9.09a2.61,2.61,0,0,0-.22-.66c-.35-.44-.7-.87-1.09-1.28C755,217,746.7,213,736.74,213q-53.34-.09-106.69,0a34.51,34.51,0,0,0-26.56,12.93Zm79.87-28.15c3.59.38,7.61-2.74,7.66-7.43a7.57,7.57,0,0,0-15.13-.18C675.75,194.27,679.39,198.08,683.36,197.77Z" transform="translate(-358.58 -58.84)"/><path d="M604.55,467.55c0,12-.94,22.76-4,33.29a55.12,55.12,0,0,1-7.08,15.67c-8.46,12.6-20.49,17.8-35.39,16.82s-25.26-8.91-31.93-22a71.11,71.11,0,0,1-6.65-21.68,136.74,136.74,0,0,1,0-42.5,70.68,70.68,0,0,1,7.19-22.75c5-9.3,12-16.5,22.39-19.41,18.9-5.31,37.74.66,47.64,21a73.58,73.58,0,0,1,6.17,20.59A122.19,122.19,0,0,1,604.55,467.55Zm-16.95,6.62c.17-12.79-.29-22.36-2.38-31.78A43.11,43.11,0,0,0,578,425.6c-8-10.81-25.19-11-33.31.19a30.68,30.68,0,0,0-3.46,5.72A66.91,66.91,0,0,0,537.8,441c-2.36,9-2.95,18.12-3,27.33,0,9.37.61,18.69,2.94,27.81,1.39,5.46,3.39,10.66,7,15.12a19.38,19.38,0,0,0,9.81,7c8.68,2.46,18.09.74,24.33-8.22a39,39,0,0,0,5.39-11.7C586.85,489.35,587.42,480.19,587.6,474.17Z" transform="translate(-358.58 -58.84)"/><path d="M808.76,406.06c1.84,0,3.68,0,5.52,0,2.66,0,3,.25,3.76,2.73,8.26,26,15.72,52.16,21.91,78.7,3,12.84,5.72,25.73,8.61,38.59,1,4.32-.2,4.8-3.77,4.65-2.63-.11-5.27,0-7.91,0-3.09,0-3.29-.17-3.87-3.29q-2.25-12.13-4.47-24.28c-.09-.47-.17-.94-.28-1.41-.57-2.52-.83-2.76-3.34-2.77q-16.44,0-32.87,0c-2.41,0-2.85.35-3.32,2.82q-2.44,13-4.81,25.92c-.5,2.68-.81,3-3.63,3s-5.59,0-8.39,0c-3.11,0-3.75-.75-3.08-3.76,3.3-14.73,6.48-29.49,10-44.18,5.86-24.64,13-48.95,20.59-73.1.12-.38.25-.76.37-1.14.7-2.08,1.11-2.41,3.26-2.45C804.93,406,806.85,406.06,808.76,406.06Zm-.23,79.36H820c3.57,0,4.15-.73,3.37-4.13a1.55,1.55,0,0,0,0-.23q-6.21-24-12.41-48a7.21,7.21,0,0,0-.61-1.8,2,2,0,0,0-3.51,0,5.09,5.09,0,0,0-.48,1.34c-4.31,16.37-8.56,32.75-13,49.09-.65,2.4.51,3.86,2.94,3.78C800.38,485.32,804.46,485.42,808.53,485.42Z" transform="translate(-358.58 -58.84)"/><path d="M755.1,499.24q0,12.94,0,25.9c0,2.86-.12,3.1-2.72,4.08-10.36,3.9-21,5.57-32,3.6-10.74-1.92-18.9-7.85-24.82-16.93a62.83,62.83,0,0,1-8.94-23.61A138.49,138.49,0,0,1,687,441.5a63.17,63.17,0,0,1,6.21-17.81c6.68-12.59,17.34-19,31.36-20.23A46.93,46.93,0,0,1,751,408.37c3.58,1.86,3.72,2.19,2.35,5.93-.73,2-1.45,4.06-2.2,6.08-1.11,3-1.9,3.26-4.61,1.73a33.25,33.25,0,0,0-9.73-3.95,31.23,31.23,0,0,0-14.26.24c-6.6,1.69-11.28,5.79-14.41,11.74A54.39,54.39,0,0,0,702.85,448a143.31,143.31,0,0,0-.44,37.07,65.49,65.49,0,0,0,4.28,17.4,31,31,0,0,0,6.53,10.25,21.05,21.05,0,0,0,14.28,6.48,53.26,53.26,0,0,0,8.83-.42c2.55-.3,2.89-.87,2.9-3.47q0-14,0-28.06c0-4.88,0-9.76,0-14.63,0-2.66.57-3.22,3.24-3.24q4.68,0,9.36,0c2.6,0,3.25.66,3.26,3.28C755.12,481.49,755.1,490.36,755.1,499.24Z" transform="translate(-358.58 -58.84)"/><path d="M623.6,468.53q0-29.14,0-58.29c0-3.85.34-4.18,4.27-4.18h7c4.48,0,4.64.15,4.64,4.52V512.29a24,24,0,0,0,0,2.4,2,2,0,0,0,2.16,2.08c.64.06,1.28,0,1.92,0h30.23a15.35,15.35,0,0,1,2.15.07,2,2,0,0,1,1.94,2.07c0,3.2.07,6.4,0,9.59,0,1.52-.72,2.05-2.3,2.17-.47,0-1,0-1.44,0H626.41c-2.22-.08-2.74-.62-2.81-2.92,0-.64,0-1.28,0-1.92Z" transform="translate(-358.58 -58.84)"/><path d="M684.09,611.32H611.16a21.31,21.31,0,0,1-2.4-.05,4.88,4.88,0,0,1-4.33-4.42,4.74,4.74,0,0,1,3.33-5.2,13.1,13.1,0,0,1,3.55-.35q70.17,0,140.35,0c2.47,0,5,0,7.43,0,3.15.09,5.23,2.19,5.2,5.1a4.88,4.88,0,0,1-4.39,4.87,21.31,21.31,0,0,1-2.4.05Z" transform="translate(-358.58 -58.84)"/><path d="M767.6,568.16c2,2.93,3.83,5.62,5.6,8.37.57.89,1.56,1.84.81,3s-2,.64-3.09.76a3,3,0,0,1-3.1-1.69c-1.54-2.52-3.35-4.87-5-7.36a3.47,3.47,0,0,0-3.8-1.75c-.62.09-1.25.09-2.15.15,0,1.34-.11,2.59-.13,3.83,0,1.6,0,3.2,0,4.8s-.47,1.89-2.07,2h-.24c-3.58.17-3.8,0-3.8-3.62q0-10.92,0-21.83c0-2.67.2-2.84,2.77-3.14a34,34,0,0,1,10.27,0,20.27,20.27,0,0,1,3.92,1.06,7.74,7.74,0,0,1,5.2,6.86,7.47,7.47,0,0,1-3.93,7.63C768.48,567.54,768.1,567.82,767.6,568.16Zm-10.5-12.44c-.58,3.15-.43,8.26.39,10.11a49.7,49.7,0,0,0,5.92-1.05c2.13-.63,2.86-2,2.81-4.43a4,4,0,0,0-2.9-4.17A13.64,13.64,0,0,0,757.1,555.72Z" transform="translate(-358.58 -58.84)"/><path d="M816.57,573.38h-12c-.44,1.48-.92,3-1.35,4.48-.67,2.39-.72,2.44-3,2.47-3.3,0-3.65-.44-2.63-3.64a203.1,203.1,0,0,1,9-22.94,3.05,3.05,0,0,1,3.28-2.08c4.53.16,3.82-.58,5.57,3.66,2.86,6.92,5.45,14,8.15,20.95a12.4,12.4,0,0,1,.59,2.06c.21,1-.18,1.8-1.27,1.9a20.69,20.69,0,0,1-3.34,0c-.95-.06-1.3-.8-1.52-1.62C817.56,577,817.09,575.27,816.57,573.38Zm-6-14.83a58.32,58.32,0,0,0-4.46,10.66,69,69,0,0,0,8.87-.09A54.85,54.85,0,0,0,810.56,558.55Z" transform="translate(-358.58 -58.84)"/><path d="M595,573.38H583c-.48,1.6-1,3.18-1.41,4.77-.6,2.05-.68,2.12-2.77,2.18-3.45.09-3.83-.41-2.79-3.7a196.67,196.67,0,0,1,9-22.93,3.06,3.06,0,0,1,3.31-2c4.45.14,3.78-.52,5.44,3.49,2.89,7,5.51,14.11,8.23,21.17a9.84,9.84,0,0,1,.54,1.83c.26,1.46-.2,2-1.76,2.15-.72.06-1.44,0-2.16,0a2,2,0,0,1-2.19-1.75C595.94,576.89,595.46,575.22,595,573.38ZM593,569.17c-.25-2.74-2.84-9.17-4.32-10.71a93.7,93.7,0,0,0-4.27,10.71A66.48,66.48,0,0,0,593,569.17Z" transform="translate(-358.58 -58.84)"/><path d="M555.74,570v6.73c0,3.51-.16,3.66-3.62,3.58-2.33-.06-2.6-.3-2.61-2.66q0-11.5,0-23c0-2.43.26-2.64,2.73-2.93a34.87,34.87,0,0,1,10.5,0,20.48,20.48,0,0,1,3.46.91c3.92,1.47,5.73,4.14,5.69,8.2a7.79,7.79,0,0,1-5.75,7.91,35,35,0,0,1-6.31,1.2A33.68,33.68,0,0,1,555.74,570Zm.16-4.22a14.76,14.76,0,0,0,6.65-.7,4.83,4.83,0,0,0-.22-8.91,11.55,11.55,0,0,0-6.43-.34Z" transform="translate(-358.58 -58.84)"/><path d="M673.68,567.45v8.61c.77.07,1.45.18,2.14.18,3.11,0,6.22,0,9.34,0,1.78,0,2.34.68,2.25,2.3a1.61,1.61,0,0,1-1.59,1.74c-.31,0-.63,0-1,0-5,0-9.9,0-14.85,0-2.37,0-2.67-.3-2.67-2.59q0-11.75,0-23.47c0-2.22.31-2.54,2.46-2.55,4.79,0,9.58,0,14.37,0,1,0,1.94.07,2.25,1.29.41,1.64-.28,2.66-2,2.69-2.71.05-5.43,0-8.14,0-.78,0-1.56.07-2.56.11a36.06,36.06,0,0,0,0,7.49H680c1,0,1.92,0,2.87,0,1.84.06,2.3.47,2.32,2s-.4,2-2.24,2c-2.31,0-4.63,0-6.94,0C675.3,567.29,674.6,567.38,673.68,567.45Z" transform="translate(-358.58 -58.84)"/><path d="M728.77,555.82v7.48h5.58c1.35,0,2.72-.06,4.07,0s1.81.68,1.8,2-.42,1.85-1.88,1.89c-2.24.07-4.48,0-6.72,0H728.8a63.7,63.7,0,0,0-.07,8.84c.95,0,1.73.12,2.5.13,3,0,6.08,0,9.12,0,1.53,0,2,.59,2,2s-.48,2-2,2q-7.92.06-15.83,0c-1.77,0-2.14-.38-2.14-2.14q-.06-12.12,0-24.23c0-1.89.37-2.21,2.29-2.23q7.32,0,14.64,0c1.65,0,2.09.47,2.13,1.9s-.42,2-2.19,2.07c-2.63,0-5.27,0-7.91,0C730.53,555.71,729.75,555.77,728.77,555.82Z" transform="translate(-358.58 -58.84)"/><path d="M621.74,550.92c1.66.25,3.33.42,5,.76,2,.42,2.45,1,2.22,2.17-.32,1.61-1.4,2.15-3.19,1.84a34.6,34.6,0,0,0-5-.52,6.36,6.36,0,0,0-2.55.55c-2.57,1-3.06,3.65-1,5.55a12.55,12.55,0,0,0,2.81,1.79c1.56.8,3.23,1.41,4.75,2.27a16.65,16.65,0,0,1,3.68,2.63,6.7,6.7,0,0,1-.78,10.28,13.51,13.51,0,0,1-4.51,2.11,22.21,22.21,0,0,1-11.83-.29c-1.69-.47-2.16-1.11-1.84-2.24a2.29,2.29,0,0,1,3-1.88c1.87.35,3.76.6,5.65.85a5.29,5.29,0,0,0,1.43-.07c2.4-.29,4-1.45,4.29-3.2.34-2.08-1-3.31-2.53-4.21-1.86-1.08-3.86-1.92-5.75-3A18,18,0,0,1,612,564c-3.47-3.19-3.08-8,.79-10.68a14.1,14.1,0,0,1,7.48-2.22c.48,0,1,0,1.44,0Z" transform="translate(-358.58 -58.84)"/><path d="M650.94,555.69v3.06q0,9.45,0,18.91c0,2.36-.28,2.61-2.59,2.67h-1.19c-2.15-.08-2.44-.35-2.44-2.57,0-6.39,0-12.77,0-19.15v-2.92c-2.5,0-4.7,0-6.91,0-1.63,0-2.21-.67-2.12-2.15.07-1.12.59-1.8,1.78-1.81,1.51,0,3,0,4.54,0,5.19,0,10.38,0,15.56,0,1.12,0,2.12.12,2.34,1.47.27,1.66-.54,2.64-2,2.56C655.74,555.61,653.52,555.69,650.94,555.69Z" transform="translate(-358.58 -58.84)"/><path d="M701.88,576.25h7.81c1,0,2.08,0,3.11,0a2,2,0,0,1,.13,4,7.48,7.48,0,0,1-.95,0c-4.56,0-9.11,0-13.66,0-2.39,0-2.66-.27-2.66-2.59q0-11.73,0-23.47c0-2.24.29-2.49,2.45-2.56,3.66-.11,3.77,0,3.77,3.63,0,6,0,12,0,18Z" transform="translate(-358.58 -58.84)"/><path d="M789.09,566c0,3.92,0,7.83,0,11.75,0,2.18-.36,2.5-2.48,2.58h-.24c-3.38.07-3.5,0-3.5-3.41q0-10.9,0-21.81c0-.56,0-1.12,0-1.68a1.71,1.71,0,0,1,.2-.92c1.25-1.51,3-.68,4.48-.74,1.21,0,1.54.94,1.54,2V566Z" transform="translate(-358.58 -58.84)"/></svg>