<svg id="Layer_1" data-name="Layer 1" xmlns="http://www.w3.org/2000/svg" viewBox="0 0 649.39 649.84"><path d="M947.84,865.16a18.39,18.39,0,0,0-2.32-.38A321.14,321.14,0,0,1,820.59,833.5a325.72,325.72,0,0,1-168.43-191,321,321,0,0,1-13.43-58,331.44,331.44,0,0,1-2.93-39.19c-.77-53,10.41-103.36,34.36-150.64q48.27-95.34,143.53-144.24a316.5,316.5,0,0,1,86.58-29.5A325,325,0,0,1,1268,434.7a318.52,318.52,0,0,1,14.35,60,217.87,217.87,0,0,1,2.4,26,11,11,0,0,0,.39,1.82v34.54c-.14,1-.33,2-.41,3.06-.33,4.54-.54,9.09-1,13.62a300.15,300.15,0,0,1-8.46,47.61q-22.93,87.79-87.76,151.34a323.4,323.4,0,0,1-211.75,92,16.74,16.74,0,0,0-2.07.39Zm322.59-324.84c.45-169.65-137.4-309.94-309.83-309.94-171,0-309.14,138.48-309.83,308.58-.7,170.62,137,310.8,309.19,311.13C1133.45,850.43,1270.83,709.41,1270.43,540.32Z" transform="translate(-635.77 -215.32)"/><path d="M960.54,816.36c-151.9.23-277.41-123.7-275.95-278.75,1.45-153.07,127.13-275,279.26-273.33,150.39,1.7,274,124.69,272.84,278.32C1235.5,694.62,1111.61,816.64,960.54,816.36Zm-.06-13c143.44.34,262-115.44,263.19-260.8,1.18-146.62-116.86-263.79-260.23-265.24C817.7,275.83,698.89,393,697.6,537.9,696.3,684.85,815.33,803.51,960.48,803.34Z" transform="translate(-635.77 -215.32)"/><path d="M1112.57,521.85h46.32a23.21,23.21,0,0,1,2.64.09,7.45,7.45,0,0,1,1,14.6,14.54,14.54,0,0,1-2.37.33c-.63,0-1.28,0-1.92,0H763.13a19.69,19.69,0,0,1-4.28-.34A7.43,7.43,0,0,1,759.7,522a22.81,22.81,0,0,1,2.87-.1H808.7v-2.77c0-16,.13-32,0-48a50.25,50.25,0,0,1,41.14-49.62c2.57-.47,5.2-.63,8.08-1,0-1,0-1.92,0-2.86,0-5.76-.15-11.53.21-17.27,1.31-21.34,17.61-40.16,38.58-44.8a54.68,54.68,0,0,1,11.89-1.29H939c-4.19-16.63,6.36-28.24,19.17-30.1.38-1.12.76-2.33,1.18-3.52,2.22-6.32,5.17-12.22,10.11-16.92,3.71-3.52,8-5.54,13.27-4.77a6.51,6.51,0,0,1,1.06,12.69,3.8,3.8,0,0,1-1.64.25c-2-.36-3.35.75-4.54,2.11-3.17,3.62-5,7.91-6.47,12.56,10.23,6.53,14,15.64,11,27.7h2.68c9.44,0,18.88,0,28.31,0a48.54,48.54,0,0,1,30.17,10c13.13,10.08,19.85,23.49,20.12,40.07.07,4.56,0,9.12,0,13.68v2.47c2.22.25,4.27.41,6.31.7A49.94,49.94,0,0,1,1112,463.39a52.73,52.73,0,0,1,.52,7.64c0,15.91,0,31.83,0,47.74Zm-15-50.2v-2c-.23-17.83-15.42-33.3-33.36-33.87-4.8-.16-9.6,0-14.39,0H871.56c-4.47,0-9-.16-13.43,0-13.68.55-23.85,6.92-30.46,18.88a33.56,33.56,0,0,0-4,16.94c4.69,1.3,8.55,4,12.51,6.56,5.57,3.6,11.29,3.51,16.93,0,1.56-1,3-2.12,4.6-3q15.91-9.15,31.86,0c1.52.88,2.91,2,4.4,2.92,5.78,3.66,11.57,3.61,17.34,0,1.49-.94,2.88-2,4.4-2.91q15.93-9.11,31.86.05c1.52.88,2.91,2,4.4,2.92,5.69,3.6,11.42,3.58,17.14.05,1.29-.8,2.49-1.74,3.79-2.53q16.75-10.16,33.48.09c1.37.83,2.62,1.84,4,2.66a15,15,0,0,0,16.34,0c1.38-.81,2.63-1.82,4-2.65q16.83-10.35,33.69,0c1.36.83,2.62,1.85,4,2.66,5.52,3.26,11.11,3.3,16.53-.14C1088.93,475.69,1092.73,472.89,1097.55,471.65ZM1097.4,488c-1.33.9-2.39,1.57-3.41,2.3a30.63,30.63,0,0,1-34.89-.05c-1.1-.8-2.22-1.58-3.38-2.27-5.45-3.23-10.92-3.16-16.34,0-1.51.9-2.89,2-4.39,2.91q-16.31,9.74-32.66.07c-1.65-1-3.15-2.21-4.81-3.16a14.93,14.93,0,0,0-15.92.07c-1.65,1-3.16,2.18-4.81,3.16q-16.1,9.46-32.25.05c-1.66-1-3.15-2.19-4.81-3.16a15,15,0,0,0-16.12,0c-1.58.92-3,2.09-4.6,3q-16.31,9.71-32.66,0c-1.44-.85-2.79-1.86-4.19-2.79a15.36,15.36,0,0,0-11.45-2.28,16.5,16.5,0,0,0-6.89,3.19,33.08,33.08,0,0,1-9.46,5.1c-9.3,2.74-18.16,1.91-26.41-3.47-1.31-.85-2.61-1.71-4.14-2.72v33.2H1097.4Zm-50.06-92.39c-1.75,1.15-3.13,1.92-4.34,2.9-1.61,1.3-3.12,2.74-4.63,4.16a26.4,26.4,0,0,1-35.59-.06c-1.52-1.42-3-2.85-4.62-4.18-4.68-3.93-10.41-3.94-15.06,0-1.71,1.44-3.31,3-5,4.48a24.46,24.46,0,0,1-9.5,5.45c-9.05,2.47-17.43,1.19-24.79-4.91-2-1.68-3.89-3.57-5.93-5.24a11,11,0,0,0-14.49,0c-1.67,1.36-3.12,3-4.84,4.29-2.36,1.75-4.71,3.73-7.38,4.83-9.15,3.73-18,3-26.1-2.95-2.31-1.7-4.35-3.76-6.52-5.64a10.42,10.42,0,0,0-4.42-2.64c-1.21,3.05-1.77,20.54-.81,24.4H1048.4C1048.07,412.33,1049.08,404.28,1047.34,395.61ZM880.71,382.43c5,2.06,8.6,5.71,12.34,9.17a11.33,11.33,0,0,0,15.27-.05c1.68-1.6,3.39-3.16,5.16-4.65a26,26,0,0,1,34.27,0c1.72,1.43,3.37,2.94,5,4.49a11.39,11.39,0,0,0,15.82,0c1.61-1.56,3.28-3,5-4.51a25.47,25.47,0,0,1,17.39-6.3,25.18,25.18,0,0,1,16.51,6.08c2,1.7,3.93,3.52,5.92,5.25a11.25,11.25,0,0,0,14.32.17c1.28-1.08,2.45-2.3,3.77-3.34,2.87-2.25,5.8-4.42,8.77-6.67-.2-.25-.51-.71-.88-1.11-6.89-7.38-15.32-11.45-25.46-11.47q-53.24-.07-106.46,0a33.3,33.3,0,0,0-13.93,3.06A33.88,33.88,0,0,0,880.71,382.43Zm80-28.18a7.4,7.4,0,0,0,7.5-7.59,7.57,7.57,0,0,0-15.14.14C953,350.52,956.33,354.59,960.71,354.25Z" transform="translate(-635.77 -215.32)"/><path d="M877.69,616.14c-.26,10.23-1.26,20.3-4.22,30.11a52.14,52.14,0,0,1-6.67,14.28c-7,10.24-16.68,15.87-29,16.93a46.14,46.14,0,0,1-19.65-2.11c-10.45-3.73-17.58-11.06-22.36-20.87a71.89,71.89,0,0,1-6.29-22.28,121.64,121.64,0,0,1,0-32.29c1.21-9,3.44-17.72,8.07-25.66,5.57-9.56,13.5-16.14,24.37-18.77a45.55,45.55,0,0,1,23.72.41c11.45,3.32,19.28,10.94,24.45,21.48A66.8,66.8,0,0,1,876.26,599C877,604.66,877.23,610.41,877.69,616.14Zm-18.47,0c0-1,0-2.08,0-3.11-.13-8-.8-16-3-23.71a36.52,36.52,0,0,0-7.07-13.74c-7.87-9.37-24.64-9.49-32.61.54A36.64,36.64,0,0,0,810.62,587a71.38,71.38,0,0,0-3.54,18.54c-.8,11-.63,22,1.66,32.92a43,43,0,0,0,5.32,14c2.73,4.4,6.26,8,11.3,9.54,10,3,20.34.86,26.66-9.48a40.9,40.9,0,0,0,4.67-11.49C858.75,632.9,859.23,624.54,859.22,616.13Z" transform="translate(-635.77 -215.32)"/><path d="M1116.83,675.15h-4.08c-3.39,0-3.85-.38-4.49-3.61q-2.25-11.28-4.48-22.56l0-.24c-.71-3.48-.71-3.48-4.36-3.48H1068c-3.18,0-3.25,0-3.9,3.19q-2.28,11.14-4.43,22.33c-.8,4.13-1,4.37-5.3,4.37-2.72,0-5.44,0-8.16,0s-3.7-1.22-3.09-4a971.93,971.93,0,0,1,25.92-95q2.7-8.19,5.47-16.36c.86-2.57,1.22-2.82,4-2.83q5.86,0,11.75,0c2.58,0,3,.3,3.81,2.74a975.71,975.71,0,0,1,28,97.62c1,4.51,2.07,9,3.09,13.55.71,3.19-.15,4.23-3.49,4.26Zm-33-43.66c3.68,0,7.35,0,11,0s4.7.13,3.46-4.27Q1092.11,605.12,1086,583a2.87,2.87,0,0,0-.39-1.12,3.67,3.67,0,0,0-1.54-1.23c-.91-.24-1.44.46-1.73,1.28-.11.3-.18.61-.27.92q-6.46,22.8-12.91,45.59c-.71,2.5-.27,3,2.27,3.06C1075.54,631.5,1079.69,631.49,1083.84,631.49Z" transform="translate(-635.77 -215.32)"/><path d="M1030.14,645q0,12.12,0,24.24c0,3.18-.17,3.5-3.14,4.52-10.51,3.63-21.26,5.21-32.32,3.42-12.11-2-21.24-8.42-27.55-18.87a64.29,64.29,0,0,1-8.21-24.12,128.9,128.9,0,0,1,0-37.52,66.86,66.86,0,0,1,6.23-20.56c6.31-12.61,16.65-19.47,30.47-21.3,9.61-1.28,19-.52,28,3.38a39.81,39.81,0,0,1,4.3,2.11,2.29,2.29,0,0,1,1.16,3.24c-1,2.78-2.09,5.54-3.24,8.26-.88,2.08-2.24,2.59-4.23,1.54a38.49,38.49,0,0,0-9.76-3.91,33.23,33.23,0,0,0-16.6.49,21.51,21.51,0,0,0-13.07,10.94,48.34,48.34,0,0,0-5,15.92,121.85,121.85,0,0,0,0,37.5A50.85,50.85,0,0,0,982,650c5,9.64,13.14,14,24.2,13.46,1.74-.1,3.48-.41,5.22-.66a1.73,1.73,0,0,0,1.61-2c0-.56,0-1.12,0-1.68V621.16c0-.72,0-1.44,0-2.16.15-1.54.88-2.42,2.41-2.46q6.12-.13,12.24,0c1.52,0,2.21.91,2.36,2.5a17.35,17.35,0,0,1,0,1.91Q1030.15,633,1030.14,645Z" transform="translate(-635.77 -215.32)"/><path d="M895.78,615.78V560.87c0-3.36.54-3.88,3.91-3.9,3.19,0,6.39,0,9.59,0,2.87,0,3.53.68,3.53,3.54q0,17.26,0,34.53v62.1c0,.63,0,1.28,0,1.91.1,1.48.55,1.94,2.06,2.08.64.05,1.28,0,1.92,0H947.5c.64,0,1.28,0,1.92,0a2.27,2.27,0,0,1,2.37,2.46c.08,3,.07,5.91,0,8.87a2.41,2.41,0,0,1-2.52,2.61,15.51,15.51,0,0,1-1.67,0H900.12a15.19,15.19,0,0,1-1.91,0,2.46,2.46,0,0,1-2.4-2.51c-.07-.71,0-1.44,0-2.15Z" transform="translate(-635.77 -215.32)"/><path d="M960.82,767.8H887.69a23.09,23.09,0,0,1-2.63,0,4.91,4.91,0,0,1-4.36-4.4,4.77,4.77,0,0,1,3.33-5.2,12.69,12.69,0,0,1,3.54-.37h117.95c9.59,0,19.18,0,28.77,0a10.08,10.08,0,0,1,3.06.38,4.76,4.76,0,0,1,3.18,5.3,4.81,4.81,0,0,1-4.2,4.27,21,21,0,0,1-2.63.06Z" transform="translate(-635.77 -215.32)"/><path d="M1042.89,720.89a109.22,109.22,0,0,1,7.23,17.86,33.67,33.67,0,0,1-6.53.23c-1.06,0-1.22-.88-1.51-1.6-1.33-3.25-2.64-6.51-4-9.76-.33-.81-.71-1.61-1.1-2.39-1.2-2.41-1.2-2.41-4.38-2-.23,5.09,0,10.26-.16,15.59H1026a15.23,15.23,0,0,1-.23-2q0-19.54,0-39.09c0-2.1,0-2.12,2-2.53a28.44,28.44,0,0,1,10.24-.46c5.36.82,8.89,4,10,9.26a23.35,23.35,0,0,1,.06,9.53,10.21,10.21,0,0,1-3.06,5.58C1044.34,719.75,1043.64,720.27,1042.89,720.89Zm-9.89-17.7c-.66,2.2-.63,9.81.11,12,1.8-.31,3.66-.59,5.51-1A3.37,3.37,0,0,0,1041,712c2.06-5-.59-9-5.92-9C1034.33,703,1033.63,703.13,1033,703.19Z" transform="translate(-635.77 -215.32)"/><path d="M1003.45,711.93H1015v8.21h-11.64c-.12,3.53-.09,6.83,0,10.43h14.23a44.59,44.59,0,0,1,.07,8.32H996.86c-.52-1.87-.59-41.24-.06-43.74h19.69v8.27h-13Z" transform="translate(-635.77 -215.32)"/><path d="M940.39,738.88V695.42c1.84-.56,17.41-.66,20-.12v8H947.33v8.51h11.5a55.8,55.8,0,0,1,.11,8.29H947.3v10.52h14.07v8.22Z" transform="translate(-635.77 -215.32)"/><path d="M875.87,738.88h-7.15c-.49-2-1-4-1.46-6a11.68,11.68,0,0,0-.59-2.31,2,2,0,0,0-1.3-1.08c-3.42-.09-6.84,0-10.46,0-.77,3.17-1.5,6.17-2.29,9.4a39.64,39.64,0,0,1-6.82,0c.12-.78.18-1.46.34-2.11,3.15-13.12,6.45-26.21,10.54-39.07.17-.53.35-1.06.51-1.6a1.58,1.58,0,0,1,1.6-1.16c4.9-.51,5.05-.42,6.52,4.26,3.94,12.58,7.2,25.34,10.23,38.16C875.63,737.76,875.71,738.15,875.87,738.88Zm-19.45-17.34c3,.11,5.56.1,8.47,0-1.39-5.41-2.67-10.41-3.95-15.41l-.56,0Z" transform="translate(-635.77 -215.32)"/><path d="M1100.9,738.89h-7.13c-.56-2.33-1.1-4.65-1.66-6.95-.6-2.48-.61-2.48-3.14-2.49h-9l-2.28,9.37h-6.82c.11-.73.17-1.41.33-2.08,3.15-13,6.39-26,10.49-38.83.17-.53.36-1.06.5-1.6a1.54,1.54,0,0,1,1.7-1.34h.24c4.81-.31,4.79-.31,6.24,4.29,4,12.57,7.19,25.34,10.24,38.15C1100.7,737.79,1100.76,738.18,1100.9,738.89ZM1086,706.12l-.54.1c-1.3,5-2.79,10-3.82,15.15a20.29,20.29,0,0,0,8.2-.27Q1087.91,713.63,1086,706.12Z" transform="translate(-635.77 -215.32)"/><path d="M827.06,724.54v14.28H820.4V695.75a29.85,29.85,0,0,1,10.4-1.2,16,16,0,0,1,2.38.3c4.81.95,8.12,3.58,9.3,8.5a25.07,25.07,0,0,1-.11,12.32c-1,3.6-3,6.16-6.72,7.09-2.31.58-4.66,1-7,1.48Zm0-9a12.07,12.07,0,0,0,5.55-.38c2.45-.75,3.38-2,3.52-5,.13-2.65-.07-5.17-2.86-6.56a.83.83,0,0,0-.22-.08c-1.58-.15-3.15-.35-4.74-.43-.87,0-1.25.55-1.25,1.4Z" transform="translate(-635.77 -215.32)"/><path d="M900,704.77c-.93-.51-1.49-.81-2-1.13a8.64,8.64,0,0,0-4.82-1.13c-1.59.08-3.09.38-3.75,2a4.45,4.45,0,0,0,.74,4.93,12.55,12.55,0,0,0,2.65,2c1.49.93,3,1.76,4.55,2.66a11.53,11.53,0,0,1,5.69,8.46,22.67,22.67,0,0,1-.16,8.8c-1.18,5-4,7.64-9,8.33A16.42,16.42,0,0,1,883,737.62a2.07,2.07,0,0,1-1.13-2.75c.6-1.89,1-3.85,1.5-6,.71.34,1.28.54,1.78.85a11.55,11.55,0,0,0,6.64,1.66c1.86-.07,3.55-.5,4.21-2.49a5.08,5.08,0,0,0-1.28-5.73,19.5,19.5,0,0,0-3-2c-1.23-.76-2.5-1.43-3.73-2.17a12,12,0,0,1-5.92-9.86,19.22,19.22,0,0,1,.67-7.35c2.32-7.41,9.05-9,15-7,4.13,1.43,4.27,1.82,3.22,6Z" transform="translate(-635.77 -215.32)"/><path d="M908.86,703.54a9,9,0,0,1-.26-1.43c0-2.22,0-4.45,0-6.61,1.93-.68,22.48-.75,24.73-.12v8.09h-8.85v35.35h-6.82V703.54Z" transform="translate(-635.77 -215.32)"/><path d="M970,738.8c-.48-1.77-.57-41.06-.05-43.65h6.33c.33,5.81.11,11.61.15,17.4s0,11.65,0,17.69c4.35.42,8.56,0,13,.29.35,2.69.07,5.37.17,8C987.84,739.1,973.3,739.27,970,738.8Z" transform="translate(-635.77 -215.32)"/><path d="M1063.88,695.16v43.67h-6.23c-.49-1.64-.65-40.38-.15-43.67Z" transform="translate(-635.77 -215.32)"/></svg>