<?xml version="1.0" encoding="utf-8"?>
<!-- Generator: Adobe Illustrator 25.2.1, SVG Export Plug-In . SVG Version: 6.00 Build 0)  -->
<svg version="1.1" id="Capa_1" xmlns="http://www.w3.org/2000/svg" xmlns:xlink="http://www.w3.org/1999/xlink" x="0px" y="0px"
	 viewBox="0 0 512 512" style="enable-background:new 0 0 512 512;" xml:space="preserve">
<path d="M512,256.7c-0.2,68.4-27,132.6-75.5,180.8S323.6,512.2,255.3,512c-68.4-0.2-132.6-27-180.8-75.5S-0.2,323.6,0,255.3
	S27,122.7,75.5,74.5S188.4-0.2,256.7,0s132.6,27,180.8,75.5S512.2,188.4,512,256.7z M40,255.4C39.7,374.5,136.3,471.7,255.4,472
	c119.1,0.3,216.3-96.3,216.6-215.4C472.3,137.5,375.7,40.3,256.6,40C137.5,39.7,40.3,136.3,40,255.4z M256.3,151.7L117.6,289.6
	l28.2,28.4l110.3-109.7l109.7,110.3l28.4-28.2L256.3,151.7z"/>
</svg>
